<?xml version="1.0" encoding="utf-8"?>
<!-- Generator: Adobe Illustrator 23.0.1, SVG Export Plug-In . SVG Version: 6.00 Build 0)  -->
<svg version="1.1" id="Layer_1" xmlns="http://www.w3.org/2000/svg" xmlns:xlink="http://www.w3.org/1999/xlink" x="0px" y="0px"
	 viewBox="0 0 7000 2200" style="enable-background:new 0 0 7000 2200;" xml:space="preserve">
<style type="text/css">
	.st0{fill:#33CCCC;}
	.st1{fill:#00CC33;}
</style>
<g>
	<g>
		<g>
			<path class="st0" d="M142.39,1009.66c0-490.1,397.31-887.41,887.41-887.41s887.41,397.31,887.41,887.41
				c0,200.67-66.67,385.86-179.15,534.53c80.39-128.27,126.82-279.92,126.82-442.38c0-461.15-373.92-835-835.09-835
				c-461.16,0-835.01,373.85-835.01,835c0,162.46,46.43,314.11,126.73,442.38C209.05,1395.52,142.39,1210.33,142.39,1009.66z"/>
			<g>
				<path class="st1" d="M1671.1,1182.8c-109.88,102.02-276.69,74.29-306.31-33.95c74.29,18.14,134.93,23.5,203.69,22.72
					c-62.55-10.54-154.72-33.95-208.27-52.52c-0.09-1.73-0.09-3.54-0.09-5.36C1449.7,1006.83,1562.35,1048.65,1671.1,1182.8z"/>
				<path class="st1" d="M1526.71,1466.95c-105.62,23.55-199.44-54.46-178.5-132.69c39.67,38.35,75.51,63.77,118.63,88.32
					c-35.13-29.34-84.03-77.48-110.64-108.56c0.57-1.11,1.24-2.23,1.9-3.37C1452.82,1276.69,1507.79,1343.76,1526.71,1466.95z"/>
				<path class="st1" d="M1743.86,903.96c-63.26,132.97-225.53,168.18-291.85,80.16c74.37-10.4,131.66-27.51,194.13-53.17
					c-60.9,13.07-153.5,25.15-209.11,27.63c-0.71-1.55-1.36-3.2-2.03-4.86C1477.99,823.72,1595.95,821,1743.86,903.96z"/>
				<path class="st1" d="M1410.89,928.89c-35.93,75.52-128.09,95.51-165.75,45.52c42.24-5.91,74.77-15.63,110.25-30.2
					c-34.59,7.43-87.18,14.28-118.77,15.69c-0.39-0.88-0.77-1.82-1.15-2.76C1259.88,883.31,1326.88,881.77,1410.89,928.89z"/>
				<path class="st1" d="M1279.85,655.69c-142.38-19.81-258.23,93.59-222.07,194.93c48.41-55.06,93.13-92.58,147.59-129.73
					c-43.36,42.64-102.94,111.66-134.82,155.67c0.89,1.41,1.89,2.83,2.88,4.26C1202.51,915.58,1268.08,820.85,1279.85,655.69z"/>
				<path class="st1" d="M1459.2,727.62c-5.12,77.78-78.05,126.85-127.88,96.52c34.54-19.66,59.38-39.29,85.09-64.13
					c-27.39,18.35-70.58,42.4-97.45,54.5c-0.66-0.63-1.3-1.31-1.95-2C1312.73,740.16,1370.22,715.75,1459.2,727.62z"/>
				<path class="st1" d="M856,569.54c-94.57,119.68-52.97,286.59,59.19,307.88c-24.4-73.86-34.74-134.94-39.51-204.71
					c15.75,62.57,46.94,154.13,70.1,206.95c1.76-0.05,3.6-0.2,5.44-0.34C1052.34,779.83,1000.83,668.98,856,569.54z"/>
				<path class="st1" d="M1035.27,423.63c-91.12,63.88-96.94,189.23-23,227.57c-1.61-56.73,3.93-101.58,15.19-151.35
					c-2.07,47.03,0.57,117.56,5.73,159.31c1.23,0.34,2.55,0.61,3.87,0.9C1128.55,611.66,1115.73,523.41,1035.27,423.63z"/>
				<path class="st1" d="M411.67,1188.43c113.28,102.22,282.59,71.61,311.2-38.95c-75.33,19.52-136.96,25.85-206.94,26.05
					c63.49-11.63,156.93-36.78,211.17-56.43c0.06-1.77,0.03-3.61,0.01-5.46C634.42,1006.21,520.4,1050.37,411.67,1188.43z"/>
				<path class="st1" d="M315.73,915.2c75.06,132.85,245.36,157.45,307.5,61.64c-77.64-5.35-138.09-18.87-204.53-40.85
					c63.9,9.08,160.49,14.83,218.17,13.37c0.62-1.66,1.17-3.41,1.74-5.18C584.73,812.93,462.6,818.69,315.73,915.2z"/>
				<path class="st1" d="M671.25,914.07c70.94-46.33,161.21-14.97,167.38,48.16c-39.65-17.2-72.92-25.97-111.29-32.1
					c33.83,11.84,82.93,33.68,111,49.13c-0.12,0.98-0.3,1.98-0.46,3C777.78,1033.22,719.01,999.18,671.25,914.07z"/>
				<path class="st1" d="M614.07,723.73c2.3,82.39,77.41,137.13,131.28,107.07c-35.73-22.15-61.18-43.87-87.35-71.14
					c28.22,20.47,72.9,47.61,100.8,61.46c0.72-0.64,1.43-1.33,2.14-2.03C768.36,742.81,708.57,714.73,614.07,723.73z"/>
				<path class="st1" d="M554.89,1459.54c100.81,15.92,184.52-63.07,160.17-135.46c-35.08,38.45-67.32,64.5-106.46,90.16
					c31.33-29.7,74.53-77.91,97.74-108.74c-0.61-1.01-1.3-2.02-1.99-3.06C613.18,1276.08,565.4,1342.46,554.89,1459.54z"/>
			</g>
		</g>
	</g>
	<g>
		<path class="st0" d="M772.31,1087.06c117.99,457.97,480.86,492.75,267.07,985.48c0,0,79.9-303.07-118.24-558.79
			C810.44,1370.88,782.32,1192.17,772.31,1087.06z"/>
		<path class="st0" d="M914.25,1292.75c45.6,144.9,311.57,210.39,252.54,541.52C1133.68,1467.14,946.52,1471.46,914.25,1292.75z"/>
		<path class="st0" d="M1125.04,1451.31c108.51-143.31,161.28-253.76,184.29-378.65c-7.23,170.92-43.86,275.11-146.85,439.12
			C1162.48,1513.21,1125.04,1451.31,1125.04,1451.31z"/>
		<path class="st0" d="M916.29,1621.19c54.29,117.08,63.35,215.95,27.36,431.91l38.87-33.11
			C1015.63,1837.15,989.71,1714.05,916.29,1621.19z"/>
		<path class="st1" d="M1140,1125.36c0,56.77-46.02,102.79-102.78,102.79c-56.76,0-102.79-46.02-102.79-102.79
			c0-56.77,46.03-102.79,102.79-102.79C1093.99,1022.58,1140,1068.59,1140,1125.36z"/>
	</g>
</g>
<g>
	<g>
		<g>
			<path class="st0" d="M2203.35,1677.29v399h-128v-924h287.5c87.4,0,154.95,22.64,202.67,67.91
				c47.71,45.27,71.57,110.21,71.57,194.83c0,48.24-11.08,90.35-33.25,126.31c-22.17,35.96-54.15,64.1-95.95,84.4
				c46.02,15.68,79.27,42.27,99.75,79.76c20.47,37.49,30.72,83.78,30.72,138.85v80.7c0,28.39,2.85,54.76,8.55,79.12
				c5.7,24.36,15.52,43.53,29.45,57.5v14.62h-132.31c-14.41-14-23.63-35.1-27.65-63.32c-4.03-28.21-6.04-58.01-6.04-89.4v-78.28
				c0-51.76-11.76-92.7-35.28-122.82c-23.52-30.12-55.83-45.18-96.93-45.18H2203.35z M2204.35,1579.29h152.14
				c51.98,0,90.33-14.08,115.05-42.23c24.72-28.15,37.08-68.07,37.08-119.73c0-52.92-12.04-93.99-36.13-123.21
				c-24.09-29.22-60.65-43.83-109.67-43.83h-158.48V1579.29z"/>
			<path class="st0" d="M3294.35,1646.29h-342v332h397v98h-526v-924h522v97h-394v299h343V1646.29z"/>
			<path class="st0" d="M3730.38,1871.39l12.68,53.9h3.8l13.32-53.27l188.34-719.73h136.6l-277.96,924h-124.38l-277.33-924h137.23
				L3730.38,1871.39z"/>
			<path class="st0" d="M4337.35,2076.29h-128v-924h128V2076.29z"/>
			<path class="st0" d="M5008.35,1646.29h-343v332h397v98h-526v-924h523v97h-394v299h343V1646.29z"/>
			<path class="st0" d="M5803.36,1810.29h3.8l124.25-658h126.76l-186.58,924h-118.57l-156.94-657h-3.81l-158.21,657h-118.57
				l-185.94-924h126.76l124.88,658h3.8l157.21-658h102.06L5803.36,1810.29z"/>
			<path class="st0" d="M6610.6,1842.72c0-43.56-12.27-79.3-36.8-107.22c-24.53-27.92-67.47-52.44-128.79-73.59
				c-87.98-26.61-155.43-61.35-202.38-104.23c-46.95-42.87-70.42-99.58-70.42-170.14c0-72.66,26.11-132.33,78.35-179.01
				c52.23-46.68,119.37-70.03,201.43-70.03c85.43,0,154.26,26.96,206.5,80.89c52.23,53.93,77.5,118.95,75.81,195.09l-1.27,3.81
				h-123.71c0-53.9-13.86-97.72-41.56-131.47c-27.71-33.74-66.72-50.62-117.05-50.62c-47.8,0-84.7,14.07-110.71,42.19
				c-26.01,28.13-39.02,63.98-39.02,107.54c0,39.33,13.96,72.43,41.87,99.29c27.91,26.86,74.01,51.29,138.3,73.28
				c84.16,26.26,148.24,62.04,192.23,107.35c43.98,45.31,65.98,103.96,65.98,175.94c0,75.8-26.01,135.94-78.03,180.4
				c-52.02,44.47-120.33,66.69-204.92,66.69c-82.48,0-154.48-24.43-216.02-73.28c-61.54-48.85-91.26-117.69-89.14-206.51l1.27-3.81
				h123.71c0,63.23,16.59,110.01,49.8,140.37c33.2,30.35,76.66,45.52,130.37,45.52c48.22,0,85.96-13.42,113.25-40.29
				C6596.96,1924.04,6610.6,1887.98,6610.6,1842.72z"/>
		</g>
	</g>
	<g>
		<g>
			<path class="st0" d="M2686.35,1050.29h-127.41L2208.17,363l-3.81,1.27v686.02h-129v-924h129.41l349.78,685.39l3.8-1.27V126.29
				h128V1050.29z"/>
			<path class="st0" d="M3272.48,817.29h-295.05l-67.4,234h-130.68l284.62-925h124.52l282.07,925h-130.68L3272.48,817.29z
				 M3007.44,715.29h235.67l-115.61-404h-3.81L3007.44,715.29z"/>
			<path class="st0" d="M4000.35,224.29h-237v826h-129v-826h-236v-98h602V224.29z"/>
			<path class="st0" d="M4660.35,126.29v640.49c0,95.64-27.4,169.07-82.19,220.27c-54.8,51.21-126.41,76.81-214.85,76.81
				c-87.17,0-157.62-25.6-211.35-76.81c-53.74-51.2-80.61-124.62-80.61-220.27V126.29h127v640.49c0,66.02,14.8,115.75,44.4,149.17
				c29.59,33.43,69.55,50.15,119.88,50.15c52.43,0,93.66-16.08,123.69-48.24c30.02-32.16,45.03-82.52,45.03-151.08V126.29H4660.35z"
				/>
			<path class="st0" d="M4925.35,652.29v399h-129v-924h288.5c87.4,0,154.95,22.64,202.67,67.91
				c47.71,45.27,71.57,110.21,71.57,194.83c0,48.24-11.08,90.35-33.25,126.31c-22.17,35.96-54.15,64.1-95.95,84.4
				c46.02,15.68,79.27,42.27,99.75,79.76c20.47,37.49,30.72,83.78,30.72,138.85v80.7c0,28.39,2.85,54.76,8.55,79.12
				c5.7,24.36,15.52,43.53,29.45,57.5v14.62h-132.31c-14.41-14-23.63-35.1-27.65-63.32c-4.03-28.21-6.04-58.01-6.04-89.4v-78.28
				c0-51.76-11.76-92.7-35.28-122.82c-23.52-30.12-55.83-45.18-96.93-45.18H4925.35z M4925.35,554.29h152.14
				c51.98,0,90.33-14.08,115.05-42.24c24.72-28.15,37.08-68.07,37.08-119.73c0-52.92-12.04-93.99-36.13-123.21
				c-24.09-29.22-60.65-43.83-109.67-43.83h-158.48V554.29z"/>
			<path class="st0" d="M5928.49,817.29h-295.05l-67.4,234h-130.68l284.62-925h124.52l282.08,925H5995.9L5928.49,817.29z
				 M5663.46,715.29h235.67l-115.61-404h-3.81L5663.46,715.29z"/>
			<path class="st0" d="M6332.35,953.29h361v98h-489v-925h128V953.29z"/>
		</g>
	</g>
</g>
</svg>
