<?xml version="1.0" encoding="utf-8"?>
<!-- Generator: Adobe Illustrator 23.0.1, SVG Export Plug-In . SVG Version: 6.00 Build 0)  -->
<svg version="1.1" id="Layer_1" xmlns="http://www.w3.org/2000/svg" xmlns:xlink="http://www.w3.org/1999/xlink" x="0px" y="0px"
	 viewBox="0 0 1260.4 260.4" style="enable-background:new 0 0 1260.4 260.4;" xml:space="preserve">
<style type="text/css">
	.st0{fill:#B4B4B4;}
	.st1{fill:#F0D811;}
</style>
<g id="layer7" transform="translate(0,-529.16667)">
	<g id="g4000" transform="matrix(1.5390363,0,0,1.5390363,65.086783,1294.1939)">
		<path id="path3881" class="st0" d="M1357.9,1644l-20.9,45.6l-49.8,5.8l36.9,34l-9.9,49.2l43.7-24.6l43.7,24.6l-9.9-49.2l36.9-34
			l-49.8-5.8L1357.9,1644z"/>
		<path id="path3955" class="st0" d="M1519.8,1644l-20.9,45.6l-49.8,5.8l36.9,34l-9.9,49.2l43.7-24.6l43.7,24.6l-9.9-49.2l36.9-34
			l-49.8-5.8L1519.8,1644z"/>
		<path id="path3957" class="st0" d="M1681.9,1644l-20.9,45.6l-49.8,5.8l36.9,34l-9.9,49.2l43.7-24.6l43.7,24.6l-9.9-49.2l36.9-34
			l-49.8-5.8L1681.9,1644z"/>
		<path id="path3959" class="st0" d="M1843.9,1644l-20.9,45.6l-49.8,5.8l36.9,34l-9.9,49.2l43.7-24.6l43.7,24.6l-9.9-49.2l36.9-34
			l-49.8-5.8L1843.9,1644z"/>
		<path id="path3961" class="st0" d="M2005.9,1644l-20.9,45.6l-49.8,5.8l36.9,34l-9.9,49.2l43.7-24.6l43.7,24.6l-9.9-49.2l36.9-34
			l-49.8-5.8L2005.9,1644z"/>
		<g id="g3816">
			<g id="g3676" transform="matrix(0.81,0,0,0.81,270.7092,107.43019)">
				<path id="path3666" class="st1" d="M1742.2,1897l-25.8,56.3l-61.5,7.2l45.6,41.9l-12.2,60.7l54-30.4l54,30.4l-12.2-60.7
					l45.6-41.9l-61.5-7.2L1742.2,1897z M1742.2,1912.6l20.9,46.9l52,5.1l-39.1,34.7l11.2,51l-45.1-26.5l-45.1,26.5l11.2-51
					l-39.1-34.7l52-5.1L1742.2,1912.6z"/>
				<path id="path3668" class="st1" d="M1942.2,1897l-25.8,56.3l-61.5,7.2l45.6,41.9l-12.2,60.7l54-30.4l54,30.4l-12.2-60.7
					l45.6-41.9l-61.5-7.2L1942.2,1897z M1942.2,1912.6l20.9,46.9l52,5.1l-39.1,34.7l11.2,51l-45.1-26.5l-45.1,26.5l11.2-51
					l-39.1-34.7l52-5.1L1942.2,1912.6z"/>
				<path id="path3670" class="st1" d="M2142.2,1897l-25.8,56.3l-61.5,7.2l45.6,41.9l-12.2,60.7l54-30.4l54,30.4l-12.2-60.7
					l45.6-41.9l-61.5-7.2L2142.2,1897z M2142.2,1912.6l20.9,46.9l52,5.1l-39.1,34.7l11.2,51l-45.1-26.5l-45.1,26.5l11.2-51
					l-39.1-34.7l52-5.1L2142.2,1912.6z"/>
				<path id="path3674" class="st1" d="M1542.1,1897l-25.8,56.3l-61.5,7.2l45.6,41.9l-12.2,60.7l54-30.4l54,30.4l-12.2-60.7
					l45.6-41.9l-61.5-7.2L1542.1,1897z M1542.2,1912.6l20.9,46.9l52,5.1l-39.1,34.7l11.2,51l-45.1-26.5l-45.1,26.5l11.2-51
					l-39.1-34.7l52-5.1L1542.2,1912.6z"/>
			</g>
			<path id="path3802" class="st1" d="M1357.9,1644l-20.9,45.6l-49.8,5.8l36.9,34l-9.9,49.2l43.7-24.6l43.7,24.6l-9.9-49.2l36.9-34
				l-49.8-5.8L1357.9,1644z M1357.9,1656.7l16.9,38l42.1,4.1l-31.7,28.1l9.1,41.3l-36.5-21.4V1656.7z"/>
		</g>
	</g>
</g>
<g id="layer8" transform="translate(0,-529.16667)">
	<g id="g4016" transform="matrix(1.5390363,0,0,1.5390363,65.086783,1294.1939)">
		<path id="path3963" class="st0" d="M2005.9,1797l-20.9,45.6l-49.8,5.8l36.9,34l-9.9,49.2l43.7-24.6l43.7,24.6l-9.9-49.2l36.9-34
			l-49.8-5.8L2005.9,1797z"/>
		<path id="path3965" class="st0" d="M1843.9,1797l-20.9,45.6l-49.8,5.8l36.9,34l-9.9,49.2l43.7-24.6l43.7,24.6l-9.9-49.2l36.9-34
			l-49.8-5.8L1843.9,1797z"/>
		<path id="path3967" class="st0" d="M1681.9,1797l-20.9,45.6l-49.8,5.8l36.9,34l-9.9,49.2l43.7-24.6l43.7,24.6l-9.9-49.2l36.9-34
			l-49.8-5.8L1681.9,1797z"/>
		<path id="path3969" class="st0" d="M1519.8,1797l-20.9,45.6l-49.8,5.8l36.9,34l-9.9,49.2l43.7-24.6l43.7,24.6l-9.9-49.2l36.9-34
			l-49.8-5.8L1519.8,1797z"/>
		<g id="g3823">
			<path id="path3654" class="st1" d="M1357.9,1797l-20.9,45.6l-49.8,5.8l36.9,34l-9.9,49.2l43.7-24.6l43.7,24.6l-9.9-49.2l36.9-34
				l-49.8-5.8L1357.9,1797z"/>
			<path id="path3656" class="st1" d="M1681.9,1797l-20.9,45.6l-49.8,5.8l36.9,34l-9.9,49.2l43.7-24.6l43.7,24.6l-9.9-49.2l36.9-34
				l-49.8-5.8L1681.9,1797z M1681.9,1809.7l16.9,38l42.1,4.1l-31.7,28.1l9.1,41.3l-36.5-21.4l-36.5,21.4l9.1-41.3l-31.7-28.1
				l42.1-4.1L1681.9,1809.7z"/>
			<path id="path3658" class="st1" d="M1843.9,1797l-20.9,45.6l-49.8,5.8l36.9,34l-9.9,49.2l43.7-24.6l43.7,24.6l-9.9-49.2l36.9-34
				l-49.8-5.8L1843.9,1797z M1843.9,1809.7l16.9,38l42.1,4.1l-31.7,28.1l9.1,41.3l-36.5-21.4l-36.5,21.4l9.1-41.3l-31.7-28.1
				l42.1-4.1L1843.9,1809.7z"/>
			<path id="path3660" class="st1" d="M2005.9,1797l-20.9,45.6l-49.8,5.8l36.9,34l-9.9,49.2l43.7-24.6l43.7,24.6l-9.9-49.2l36.9-34
				l-49.8-5.8L2005.9,1797z M2005.9,1809.7l16.9,38l42.1,4.1l-31.7,28.1l9.1,41.3l-36.5-21.4l-36.5,21.4l9.1-41.3l-31.7-28.1
				l42.1-4.1L2005.9,1809.7z"/>
			<path id="path3725" class="st1" d="M1519.8,1797l-20.9,45.6l-49.8,5.8l36.9,34l-9.9,49.2l43.7-24.6l43.7,24.6l-9.9-49.2l36.9-34
				l-49.8-5.8L1519.8,1797z M1519.8,1809.7l16.9,38l42.1,4.1l-31.7,28.1l9.1,41.3l-36.5-21.4V1809.7z"/>
		</g>
	</g>
</g>
<g id="layer9" transform="translate(0,-529.16667)">
	<g id="g4030" transform="matrix(1.5390363,0,0,1.5390363,65.086783,1294.1939)">
		<path id="path3971" class="st0" d="M1681.8,1950.1l-20.9,45.6l-49.8,5.8l36.9,34l-9.9,49.2l43.7-24.6l43.7,24.6l-9.9-49.2l36.9-34
			l-49.8-5.8L1681.8,1950.1z"/>
		<path id="path3973" class="st0" d="M1843.8,1950.1l-20.9,45.6l-49.8,5.8l36.9,34l-9.9,49.2l43.7-24.6l43.7,24.6l-9.9-49.2l36.9-34
			l-49.8-5.8L1843.8,1950.1z"/>
		<path id="path3975" class="st0" d="M2005.9,1950.1l-20.9,45.6l-49.8,5.8l36.9,34l-9.9,49.2l43.7-24.6l43.7,24.6l-9.9-49.2l36.9-34
			l-49.8-5.8L2005.9,1950.1z"/>
		<g id="g3793">
			<path id="path3614" class="st1" d="M1357.9,1950.1l-20.9,45.6l-49.8,5.8l36.9,34l-9.9,49.2l43.7-24.6l43.7,24.6l-9.9-49.2
				l36.9-34l-49.8-5.8L1357.9,1950.1z"/>
			<path id="path3616" class="st1" d="M1519.9,1950.1l-20.9,45.6l-49.8,5.8l36.9,34l-9.9,49.2l43.7-24.6l43.7,24.6l-9.9-49.2
				l36.9-34l-49.8-5.8L1519.9,1950.1z"/>
			<path id="path3618" class="st1" d="M1843.9,1950.1l-20.9,45.6l-49.8,5.8l36.9,34l-9.9,49.2l43.7-24.6l43.7,24.6l-9.9-49.2
				l36.9-34l-49.8-5.8L1843.9,1950.1z M1843.9,1962.8l16.9,38l42.1,4.1l-31.7,28.1l9.1,41.3l-36.5-21.4l-36.5,21.4l9.1-41.3
				l-31.7-28.1l42.1-4.1L1843.9,1962.8z"/>
			<path id="path3620" class="st1" d="M2005.9,1950.1l-20.9,45.6l-49.8,5.8l36.9,34l-9.9,49.2l43.7-24.6l43.7,24.6l-9.9-49.2
				l36.9-34l-49.8-5.8L2005.9,1950.1z M2005.9,1962.8l16.9,38l42.1,4.1l-31.7,28.1l9.1,41.3l-36.5-21.4l-36.5,21.4l9.1-41.3
				l-31.7-28.1l42.1-4.1L2005.9,1962.8z"/>
			<path id="path3707" class="st1" d="M1681.9,1950.1l-20.9,45.6l-49.8,5.8l36.9,34l-9.9,49.2l43.7-24.6l43.7,24.6l-9.9-49.2
				l36.9-34l-49.8-5.8L1681.9,1950.1z M1681.9,1962.8l16.9,38l42.1,4.1l-31.7,28.1l9.1,41.3l-36.5-21.4V1962.8z"/>
		</g>
	</g>
</g>
<g id="layer10" transform="translate(0,-529.16667)">
	<g id="g15043" transform="matrix(0.45030706,0,0,0.45030705,27.837556,911.9836)">
		<path id="path3979" class="st0" d="M6384.5,8036.9l-71.4,155.8l-170.3,19.8l126.1,116.1l-33.8,168.1l149.4-84.1l149.4,84.1
			l-33.8-168.1l126.1-116.1l-170.3-19.8L6384.5,8036.9z"/>
		<g id="g4041" transform="matrix(3.4177486,0,0,3.4177486,82.719355,848.7762)">
			<path id="path3977" class="st0" d="M2005.8,2103.2l-20.9,45.6l-49.8,5.8l36.9,34l-9.9,49.2l43.7-24.6l43.7,24.6l-9.9-49.2
				l36.9-34l-49.8-5.8L2005.8,2103.2z"/>
			<g id="g3774">
				<g id="g3632" transform="matrix(0.81,0,0,0.81,270.70896,66.93)">
					<path id="path3626" class="st1" d="M1342.1,2513.9l-25.8,56.3l-61.5,7.2l45.6,41.9l-12.2,60.7l54-30.4l54,30.4l-12.2-60.7
						l45.6-41.9l-61.5-7.2L1342.1,2513.9z"/>
					<path id="path3628" class="st1" d="M1542.1,2513.9l-25.8,56.3l-61.5,7.2l45.6,41.9l-12.2,60.7l54-30.4l54,30.4l-12.2-60.7
						l45.6-41.9l-61.5-7.2L1542.1,2513.9z"/>
					<path id="path3630" class="st1" d="M1742.1,2513.9l-25.8,56.3l-61.5,7.2l45.6,41.9l-12.2,60.7l54-30.4l54,30.4l-12.2-60.7
						l45.6-41.9l-61.5-7.2L1742.1,2513.9z"/>
				</g>
				<path id="path3636" class="st1" d="M2005.8,2103.2l-20.9,45.6l-49.8,5.8l36.9,34l-9.9,49.2l43.7-24.6l43.7,24.6l-9.9-49.2
					l36.9-34l-49.8-5.8L2005.8,2103.2z M2005.9,2115.9l16.9,38l42.1,4.1l-31.7,28.1l9.1,41.3l-36.5-21.4l-36.5,21.4l9.1-41.3
					l-31.7-28.1l42.1-4.1L2005.9,2115.9z"/>
				<path id="path3687" class="st1" d="M1843.8,2103.2l-20.9,45.6l-49.8,5.8l36.9,34l-9.9,49.2l43.7-24.6l43.7,24.6l-9.9-49.2
					l36.9-34l-49.8-5.8L1843.8,2103.2z M1843.8,2115.9l16.9,38l42.1,4.1l-31.7,28.1l9.1,41.3l-36.5-21.4V2115.9z"/>
			</g>
		</g>
	</g>
</g>
<g id="layer11" transform="translate(0,-529.16667)">
	<g id="g4051" transform="matrix(1.5390363,0,0,1.5390363,65.086783,1294.1939)">
		<path id="path3981" class="st0" d="M2005.9,2256.3l-20.9,45.6l-49.8,5.8l36.9,34l-9.9,49.2l43.7-24.6l43.7,24.6l-9.9-49.2l36.9-34
			l-49.8-5.8L2005.9,2256.3z"/>
		<g id="g3766">
			<path id="path3640" class="st1" d="M1357.9,2256.3l-20.9,45.6l-49.8,5.8l36.9,34l-9.9,49.2l43.7-24.6l43.7,24.6l-9.9-49.2
				l36.9-34l-49.8-5.8L1357.9,2256.3z"/>
			<path id="path3642" class="st1" d="M1519.9,2256.3l-20.9,45.6l-49.8,5.8l36.9,34l-9.9,49.2l43.7-24.6l43.7,24.6l-9.9-49.2
				l36.9-34l-49.8-5.8L1519.9,2256.3z"/>
			<path id="path3644" class="st1" d="M1681.9,2256.3l-20.9,45.6l-49.8,5.8l36.9,34l-9.9,49.2l43.7-24.6l43.7,24.6l-9.9-49.2
				l36.9-34l-49.8-5.8L1681.9,2256.3z"/>
			<path id="path3646" class="st1" d="M1843.9,2256.3l-20.9,45.6l-49.8,5.8l36.9,34l-9.9,49.2l43.7-24.6l43.7,24.6l-9.9-49.2
				l36.9-34l-49.8-5.8L1843.9,2256.3z"/>
			<path id="path3650" class="st1" d="M2005.9,2256.3l-20.9,45.6l-49.8,5.8l36.9,34l-9.9,49.2l43.7-24.6l43.7,24.6l-9.9-49.2
				l36.9-34l-49.8-5.8L2005.9,2256.3z M2005.9,2269l16.9,38l42.1,4.1l-31.7,28.1l9.1,41.3l-36.5-21.4V2269z"/>
		</g>
	</g>
</g>
<g id="layer7_1_" transform="translate(0,-529.16667)">
	<g id="g4000_1_" transform="matrix(1.5390363,0,0,1.5390363,65.086783,1294.1939)">
		<path id="path3881_1_" class="st0" d="M970.4-417.6L949.5-372l-49.8,5.8l36.9,34l-9.9,49.2l43.7-24.6l43.7,24.6l-9.9-49.2l36.9-34
			l-49.8-5.8L970.4-417.6z"/>
		<path id="path3955_1_" class="st0" d="M1132.4-417.6l-20.9,45.6l-49.8,5.8l36.9,34l-9.9,49.2l43.7-24.6l43.7,24.6l-9.9-49.2
			l36.9-34l-49.8-5.8L1132.4-417.6z"/>
		<path id="path3957_1_" class="st0" d="M1294.4-417.6l-20.9,45.6l-49.8,5.8l36.9,34l-9.9,49.2l43.7-24.6l43.7,24.6l-9.9-49.2
			l36.9-34l-49.8-5.8L1294.4-417.6z"/>
		<path id="path3959_1_" class="st0" d="M1456.4-417.6l-20.9,45.6l-49.8,5.8l36.9,34l-9.9,49.2l43.7-24.6l43.7,24.6l-9.9-49.2
			l36.9-34l-49.8-5.8L1456.4-417.6z"/>
		<path id="path3961_1_" class="st0" d="M1618.4-417.6l-20.9,45.6l-49.8,5.8l36.9,34l-9.9,49.2l43.7-24.6l43.7,24.6l-9.9-49.2
			l36.9-34l-49.8-5.8L1618.4-417.6z"/>
		<g id="g3816_1_">
			<g id="g3676_1_" transform="matrix(0.81,0,0,0.81,270.7092,107.43019)">
				<path id="path3666_1_" class="st1" d="M1263.9-648.2l-25.8,56.3l-61.5,7.2l45.6,41.9l-12.2,60.7l54-30.4l54,30.4l-12.2-60.7
					l45.6-41.9l-61.5-7.2L1263.9-648.2z M1263.9-632.5l20.9,46.9l52,5.1l-39.1,34.7l11.2,51l-45.1-26.5l-45.1,26.5l11.2-51
					l-39.1-34.7l52-5.1L1263.9-632.5z"/>
				<path id="path3668_1_" class="st1" d="M1463.9-648.2l-25.8,56.3l-61.5,7.2l45.6,41.9l-12.2,60.7l54-30.4l54,30.4l-12.2-60.7
					l45.6-41.9l-61.5-7.2L1463.9-648.2z M1463.9-632.5l20.9,46.9l52,5.1l-39.1,34.7l11.2,51l-45.1-26.5l-45.1,26.5l11.2-51
					l-39.1-34.7l52-5.1L1463.9-632.5z"/>
				<path id="path3670_1_" class="st1" d="M1663.9-648.2l-25.8,56.3l-61.5,7.2l45.6,41.9l-12.2,60.7l54-30.4l54,30.4l-12.2-60.7
					l45.6-41.9l-61.5-7.2L1663.9-648.2z M1663.9-632.5l20.9,46.9l52,5.1l-39.1,34.7l11.2,51l-45.1-26.5l-45.1,26.5l11.2-51
					l-39.1-34.7l52-5.1L1663.9-632.5z"/>
				<path id="path3674_1_" class="st1" d="M1063.9-648.2l-25.8,56.3l-61.5,7.2l45.6,41.9l-12.2,60.7l54-30.4l54,30.4l-12.2-60.7
					l45.6-41.9l-61.5-7.2L1063.9-648.2z M1063.9-632.5l20.9,46.9l52,5.1l-39.1,34.7l11.2,51l-45.1-26.5l-45.1,26.5l11.2-51
					L991-580.5l52-5.1L1063.9-632.5z"/>
			</g>
			<path id="path3802_1_" class="st1" d="M970.4-417.6L949.5-372l-49.8,5.8l36.9,34l-9.9,49.2l43.7-24.6l43.7,24.6l-9.9-49.2
				l36.9-34l-49.8-5.8L970.4-417.6z M970.4-404.9l16.9,38l42.1,4.1l-31.7,28.1l9.1,41.3l-36.5-21.4V-404.9z"/>
		</g>
	</g>
</g>
<g id="layer8_1_" transform="translate(0,-529.16667)">
	<g id="g4016_1_" transform="matrix(1.5390363,0,0,1.5390363,65.086783,1294.1939)">
		<path id="path3963_1_" class="st0" d="M1618.4-264.5l-20.9,45.6l-49.8,5.8l36.9,34l-9.9,49.2l43.7-24.6l43.7,24.6l-9.9-49.2
			l36.9-34l-49.8-5.8L1618.4-264.5z"/>
		<path id="path3965_1_" class="st0" d="M1456.4-264.5l-20.9,45.6l-49.8,5.8l36.9,34l-9.9,49.2l43.7-24.6l43.7,24.6l-9.9-49.2
			l36.9-34l-49.8-5.8L1456.4-264.5z"/>
		<path id="path3967_1_" class="st0" d="M1294.4-264.5l-20.9,45.6l-49.8,5.8l36.9,34l-9.9,49.2l43.7-24.6l43.7,24.6l-9.9-49.2
			l36.9-34l-49.8-5.8L1294.4-264.5z"/>
		<path id="path3969_1_" class="st0" d="M1132.4-264.5l-20.9,45.6l-49.8,5.8l36.9,34l-9.9,49.2l43.7-24.6l43.7,24.6l-9.9-49.2
			l36.9-34l-49.8-5.8L1132.4-264.5z"/>
		<g id="g3823_1_">
			<path id="path3654_1_" class="st1" d="M970.4-264.5L949.5-219l-49.8,5.8l36.9,34l-9.9,49.2l43.7-24.6l43.7,24.6l-9.9-49.2
				l36.9-34l-49.8-5.8L970.4-264.5z"/>
			<path id="path3656_1_" class="st1" d="M1294.4-264.5l-20.9,45.6l-49.8,5.8l36.9,34l-9.9,49.2l43.7-24.6l43.7,24.6l-9.9-49.2
				l36.9-34l-49.8-5.8L1294.4-264.5z M1294.4-251.9l16.9,38l42.1,4.1l-31.7,28.1l9.1,41.3l-36.5-21.4l-36.5,21.4l9.1-41.3
				l-31.7-28.1l42.1-4.1L1294.4-251.9z"/>
			<path id="path3658_1_" class="st1" d="M1456.4-264.5l-20.9,45.6l-49.8,5.8l36.9,34l-9.9,49.2l43.7-24.6l43.7,24.6l-9.9-49.2
				l36.9-34l-49.8-5.8L1456.4-264.5z M1456.4-251.9l16.9,38l42.1,4.1l-31.7,28.1l9.1,41.3l-36.5-21.4l-36.5,21.4l9.1-41.3
				l-31.7-28.1l42.1-4.1L1456.4-251.9z"/>
			<path id="path3660_1_" class="st1" d="M1618.4-264.5l-20.9,45.6l-49.8,5.8l36.9,34l-9.9,49.2l43.7-24.6l43.7,24.6l-9.9-49.2
				l36.9-34l-49.8-5.8L1618.4-264.5z M1618.4-251.9l16.9,38l42.1,4.1l-31.7,28.1l9.1,41.3l-36.5-21.4l-36.5,21.4l9.1-41.3
				l-31.7-28.1l42.1-4.1L1618.4-251.9z"/>
			<path id="path3725_1_" class="st1" d="M1132.4-264.5l-20.9,45.6l-49.8,5.8l36.9,34l-9.9,49.2l43.7-24.6l43.7,24.6l-9.9-49.2
				l36.9-34l-49.8-5.8L1132.4-264.5z M1132.4-251.9l16.9,38l42.1,4.1l-31.7,28.1l9.1,41.3l-36.5-21.4V-251.9z"/>
		</g>
	</g>
</g>
<g id="layer9_1_" transform="translate(0,-529.16667)">
	<g id="g4030_1_" transform="matrix(1.5390363,0,0,1.5390363,65.086783,1294.1939)">
		<path id="path3971_1_" class="st0" d="M1294.4-111.5l-20.9,45.6l-49.8,5.8l36.9,34l-9.9,49.2l43.7-24.6l43.7,24.6l-9.9-49.2
			l36.9-34l-49.8-5.8L1294.4-111.5z"/>
		<path id="path3973_1_" class="st0" d="M1456.4-111.5l-20.9,45.6l-49.8,5.8l36.9,34l-9.9,49.2l43.7-24.6l43.7,24.6l-9.9-49.2
			l36.9-34l-49.8-5.8L1456.4-111.5z"/>
		<path id="path3975_1_" class="st0" d="M1618.4-111.5l-20.9,45.6l-49.8,5.8l36.9,34l-9.9,49.2l43.7-24.6l43.7,24.6l-9.9-49.2
			l36.9-34l-49.8-5.8L1618.4-111.5z"/>
		<g id="g3793_1_">
			<path id="path3614_1_" class="st1" d="M970.4-111.5l-20.9,45.6l-49.8,5.8l36.9,34l-9.9,49.2l43.7-24.6l43.7,24.6l-9.9-49.2
				l36.9-34l-49.8-5.8L970.4-111.5z"/>
			<path id="path3616_1_" class="st1" d="M1132.4-111.5l-20.9,45.6l-49.8,5.8l36.9,34l-9.9,49.2l43.7-24.6l43.7,24.6l-9.9-49.2
				l36.9-34l-49.8-5.8L1132.4-111.5z"/>
			<path id="path3618_1_" class="st1" d="M1456.4-111.5l-20.9,45.6l-49.8,5.8l36.9,34l-9.9,49.2l43.7-24.6l43.7,24.6l-9.9-49.2
				l36.9-34l-49.8-5.8L1456.4-111.5z M1456.4-98.8l16.9,38l42.1,4.1l-31.7,28.1l9.1,41.3l-36.5-21.4l-36.5,21.4l9.1-41.3l-31.7-28.1
				l42.1-4.1L1456.4-98.8z"/>
			<path id="path3620_1_" class="st1" d="M1618.4-111.5l-20.9,45.6l-49.8,5.8l36.9,34l-9.9,49.2l43.7-24.6l43.7,24.6l-9.9-49.2
				l36.9-34l-49.8-5.8L1618.4-111.5z M1618.4-98.8l16.9,38l42.1,4.1l-31.7,28.1l9.1,41.3l-36.5-21.4l-36.5,21.4l9.1-41.3l-31.7-28.1
				l42.1-4.1L1618.4-98.8z"/>
			<path id="path3707_1_" class="st1" d="M1294.4-111.5l-20.9,45.6l-49.8,5.8l36.9,34l-9.9,49.2l43.7-24.6l43.7,24.6l-9.9-49.2
				l36.9-34l-49.8-5.8L1294.4-111.5z M1294.4-98.8l16.9,38l42.1,4.1l-31.7,28.1l9.1,41.3l-36.5-21.4V-98.8z"/>
		</g>
	</g>
</g>
<g id="layer10_1_" transform="translate(0,-529.16667)">
	<g id="g15043_1_" transform="matrix(0.45030706,0,0,0.45030705,27.837556,911.9836)">
		<path id="path3979_1_" class="st0" d="M5060.5,990.9l-71.4,155.8l-170.3,19.8l126.1,116.1l-33.8,168.1l149.4-84.1l149.4,84.1
			l-33.8-168.1l126.1-116.1l-170.3-19.8L5060.5,990.9z"/>
		<g id="g4041_1_" transform="matrix(3.4177486,0,0,3.4177486,82.719355,848.7762)">
			<path id="path3977_1_" class="st0" d="M1618.4,41.6l-20.9,45.6l-49.8,5.8l36.9,34l-9.9,49.2l43.7-24.6l43.7,24.6l-9.9-49.2
				l36.9-34l-49.8-5.8L1618.4,41.6z"/>
			<g id="g3774_1_">
				<g id="g3632_1_" transform="matrix(0.81,0,0,0.81,270.70896,66.93)">
					<path id="path3626_1_" class="st1" d="M863.9-31.3L838.1,25l-61.5,7.2l45.6,41.9l-12.2,60.7l54-30.4l54,30.4l-12.2-60.7
						l45.6-41.9L889.7,25L863.9-31.3z"/>
					<path id="path3628_1_" class="st1" d="M1063.9-31.3L1038.1,25l-61.5,7.2l45.6,41.9l-12.2,60.7l54-30.4l54,30.4l-12.2-60.7
						l45.6-41.9l-61.5-7.2L1063.9-31.3z"/>
					<path id="path3630_1_" class="st1" d="M1263.9-31.3L1238.1,25l-61.5,7.2l45.6,41.9l-12.2,60.7l54-30.4l54,30.4l-12.2-60.7
						l45.6-41.9l-61.5-7.2L1263.9-31.3z"/>
				</g>
				<path id="path3636_1_" class="st1" d="M1618.4,41.6l-20.9,45.6l-49.8,5.8l36.9,34l-9.9,49.2l43.7-24.6l43.7,24.6l-9.9-49.2
					l36.9-34l-49.8-5.8L1618.4,41.6z M1618.4,54.3l16.9,38l42.1,4.1l-31.7,28.1l9.1,41.3l-36.5-21.4l-36.5,21.4l9.1-41.3l-31.7-28.1
					l42.1-4.1L1618.4,54.3z"/>
				<path id="path3687_1_" class="st1" d="M1456.4,41.6l-20.9,45.6l-49.8,5.8l36.9,34l-9.9,49.2l43.7-24.6l43.7,24.6l-9.9-49.2
					l36.9-34l-49.8-5.8L1456.4,41.6z M1456.4,54.3l16.9,38l42.1,4.1l-31.7,28.1l9.1,41.3l-36.5-21.4V54.3z"/>
			</g>
		</g>
	</g>
</g>
<g id="layer11_1_" transform="translate(0,-529.16667)">
	<g id="g4051_1_" transform="matrix(1.5390363,0,0,1.5390363,65.086783,1294.1939)">
		<path id="path3981_1_" class="st0" d="M1618.4,194.7l-20.9,45.6l-49.8,5.8l36.9,34l-9.9,49.2l43.7-24.6l43.7,24.6l-9.9-49.2
			l36.9-34l-49.8-5.8L1618.4,194.7z"/>
		<g id="g3766_1_">
			<path id="path3640_1_" class="st1" d="M970.4,194.7l-20.9,45.6l-49.8,5.8l36.9,34l-9.9,49.2l43.7-24.6l43.7,24.6l-9.9-49.2
				l36.9-34l-49.8-5.8L970.4,194.7z"/>
			<path id="path3642_1_" class="st1" d="M1132.4,194.7l-20.9,45.6l-49.8,5.8l36.9,34l-9.9,49.2l43.7-24.6l43.7,24.6l-9.9-49.2
				l36.9-34l-49.8-5.8L1132.4,194.7z"/>
			<path id="path3644_1_" class="st1" d="M1294.4,194.7l-20.9,45.6l-49.8,5.8l36.9,34l-9.9,49.2l43.7-24.6l43.7,24.6l-9.9-49.2
				l36.9-34l-49.8-5.8L1294.4,194.7z"/>
			<path id="path3646_1_" class="st1" d="M1456.4,194.7l-20.9,45.6l-49.8,5.8l36.9,34l-9.9,49.2l43.7-24.6l43.7,24.6l-9.9-49.2
				l36.9-34l-49.8-5.8L1456.4,194.7z"/>
			<path id="path3650_1_" class="st1" d="M1618.4,194.7l-20.9,45.6l-49.8,5.8l36.9,34l-9.9,49.2l43.7-24.6l43.7,24.6l-9.9-49.2
				l36.9-34l-49.8-5.8L1618.4,194.7z M1618.4,207.4l16.9,38l42.1,4.1l-31.7,28.1l9.1,41.3l-36.5-21.4V207.4z"/>
		</g>
	</g>
</g>
<g id="layer11_2_" transform="translate(0,-529.16667)">
	<g id="g4051_2_" transform="matrix(1.5390363,0,0,1.5390363,65.086783,1294.1939)">
		<path id="path3981_2_" class="st0" d="M692.1-484.9l-20.9,45.6l-49.8,5.8l36.9,34l-9.9,49.2l43.7-24.6l43.7,24.6l-9.9-49.2
			l36.9-34l-49.8-5.8L692.1-484.9z"/>
		<g id="g3766_2_">
			<path id="path3640_2_" class="st1" d="M44.1-484.9l-20.9,45.6l-49.8,5.8l36.9,34l-9.9,49.2L44.1-375l43.7,24.6L78-399.5l36.9-34
				L65-439.3L44.1-484.9z"/>
			<path id="path3642_2_" class="st1" d="M206.1-484.9l-20.9,45.6l-49.8,5.8l36.9,34l-9.9,49.2l43.7-24.6l43.7,24.6l-9.9-49.2
				l36.9-34l-49.8-5.8L206.1-484.9z"/>
			<path id="path3644_2_" class="st1" d="M368.1-484.9l-20.9,45.6l-49.8,5.8l36.9,34l-9.9,49.2l43.7-24.6l43.7,24.6l-9.9-49.2
				l36.9-34l-49.8-5.8L368.1-484.9z"/>
			<path id="path3646_2_" class="st1" d="M530.1-484.9l-20.9,45.6l-49.8,5.8l36.9,34l-9.9,49.2l43.7-24.6l43.7,24.6l-9.9-49.2
				l36.9-34l-49.8-5.8L530.1-484.9z"/>
			<path id="path3650_2_" class="st1" d="M692.1-484.9l-20.9,45.6l-49.8,5.8l36.9,34l-9.9,49.2l43.7-24.6l43.7,24.6l-9.9-49.2
				l36.9-34l-49.8-5.8L692.1-484.9z M692.1-472.2l16.9,38l42.1,4.1L719.5-402l9.1,41.3l-36.5-21.4V-472.2z"/>
			<path id="path3646_3_" class="st1" d="M692.1-484.9l-20.9,45.6l-49.8,5.8l36.9,34l-9.9,49.2l43.7-24.6l43.7,24.6l-9.9-49.2
				l36.9-34l-49.8-5.8L692.1-484.9z"/>
		</g>
	</g>
</g>
</svg>
